ply
format ascii 1.0
comment Created by Blender 2.69 (sub 0) - www.blender.org, source file: ''
element vertex 8
property float x
property float y
property float z
property uchar red
property uchar green
property uchar blue
element face 12
property list uchar uint vertex_indices
end_header
-1.000000 -1.000000 1.000000 12 29 67
-1.000000 1.000000 1.000000 137 174 194
-1.000000 1.000000 -1.000000 164 152 129
1.000000 1.000000 1.000000 179 162 122
1.000000 1.000000 -1.000000 97 172 125
1.000000 -1.000000 1.000000 59 82 121
1.000000 -1.000000 -1.000000 136 52 226
-1.000000 -1.000000 -1.000000 23 32 29
3 0 1 2
3 1 3 4
3 3 5 6
3 0 7 5
3 7 2 4
3 5 3 1
3 7 0 2
3 2 1 4
3 4 3 6
3 5 7 6
3 6 7 4
3 0 5 1
