/* XPM */
static char *icon5_xpm[] = {
/* columns rows colors chars-per-pixel */
"32 32 41 1",
"0 c #AAC1E8",
"q c #B9CDED",
"X c #295193",
"e c #C6D6F0",
"a c #4A7CCE",
"& c #779DDB",
"* c #7FA2DD",
"2 c #EAF0FA",
"@ c #2D59A3",
"o c #6E96D8",
"y c #356AC1",
"d c #214279",
"w c #BED0EE",
"= c #85A7DF",
"< c #E1E9F7",
"3 c #F0F5FC",
"s c #CBD9F1",
", c #DAE5F6",
"7 c #3161B1",
"  c None",
". c #274D8B",
"6 c #FDFEFF",
"i c #E7EEF9",
"9 c #9FB9E5",
"- c #89A9DF",
"8 c #98B5E4",
"$ c #5584D1",
"+ c #3569BF",
"% c #305FAC",
"O c #5D89D3",
"> c #D2DFF4",
"p c #3366B9",
"5 c #FAFCFE",
"4 c #F5F8FD",
"t c #4075CC",
"u c #638ED5",
"r c #CEDCF2",
"; c #90AFE2",
"# c #2F5DA9",
": c #B3C8EB",
"1 c #E5EDF9",
/* pixels */
"                                ",
"                                ",
"                                ",
"                                ",
"                                ",
"                                ",
"                                ",
"     ......X                    ",
"     XoooooO.                   ",
"     Xoooooo+.                  ",
"     Xooooooo@XXXXXXXXXX#       ",
"     Xoooooooooooooooooo#       ",
"     Xoooooooooooooooooo#       ",
"     Xoo$###################    ",
"     Xoo%O&*=-;:>,<123445667    ",
"     XooX890:qwer>,<123445q#    ",
"     Xoty;890:qwer>,<12344#     ",
"     Xo%u-;890:qwer>,<i234#     ",
"     XoX&*-;890:qwer>,<i2r#     ",
"     Xtpo&*-;890:qwer>,<i#      ",
"     X%auo&*-;890:qwer>,<#      ",
"     XX$Ouo&*-;890:qwer>s#      ",
"     d%a$Ouo&*-;890:qwer#       ",
"     d+ta$Ouo&*-;890:qwe#       ",
"     d..................#       ",
"                                ",
"                                ",
"                                ",
"                                ",
"                                ",
"                                ",
"                                "
};
