/* XPM */
static char *icon4_xpm[] = {
/* columns rows colors chars-per-pixel */
"32 32 5 1",
". c Black",
"o c #8399B4",
"X c #8DA0B9",
"  c None",
"O c #800000",
/* pixels */
"                                ",
"                                ",
"                                ",
"                                ",
"                                ",
"                                ",
"      .......                   ",
"      .XXXXXo.                  ",
"      .XXXXXXX.                 ",
"      ....................      ",
"      .OOOOOOOOOOOOOOOOOO.      ",
"      .OOOOOOOOOOOOOOOOOO.      ",
"      .OOOOOOOOOOOOOOOOOO.      ",
"      .OOOOOOOOOOOOOOOOOO.      ",
"      .OOOOOOOOOOOOOOOOOO.      ",
"      .OOOOOOOOOOOOOOOOOO.      ",
"      .OOOOOOOOOOOOOOOOOO.      ",
"      .OOOOOOOOOOOOOOOOOO.      ",
"      .OOOOOOOOOOOOOOOOOO.      ",
"      .OOOOOOOOOOOOOOOOOO.      ",
"      .OOOOOOOOOOOOOOOOOO.      ",
"      .OOOOOOOOOOOOOOOOOO.      ",
"      .OOOOOOOOOOOOOOOOOO.      ",
"      ....................      ",
"                                ",
"                                ",
"                                ",
"                                ",
"                                ",
"                                ",
"                                ",
"                                "
};
