/* XPM */
static char *icon1_xpm[] = {
/* columns rows colors chars-per-pixel */
"32 32 41 1",
"> c #97C4E7",
"# c #4381AA",
"d c #FFFFFF",
"< c #71B2DE",
"+ c #538BB1",
"& c #D1E5F5",
"q c #63B3DE",
"6 c #F1F4F7",
"* c #CAE1F3",
"y c #7AC4E5",
"= c #C3DDF1",
"X c #74A1BD",
"- c #BCD9EF",
"5 c #619BC4",
"3 c #E6EAF1",
"2 c #4B8EBF",
"o c #6B97B6",
". c #4B82A8",
"  c None",
"w c #54A6D8",
"1 c #71A8D1",
", c #85BBE2",
"t c #EFF6FC",
"7 c #DEEDF8",
"@ c #4388B4",
"a c #F7FBFD",
"$ c #D7E0E9",
"r c #FAFCFE",
"4 c #DAEAF7",
"e c #E9F3FA",
"0 c #76BAE2",
"% c #7FA6C0",
"s c #FDFDFE",
"O c #5896BE",
"p c #B6D5EE",
"8 c #87ABC3",
": c #A5CCEA",
"9 c #E5F0F9",
"; c #AFD1EC",
"i c #F4F9FD",
"u c #8FB0C3",
/* pixels */
"                                ",
"                                ",
"                                ",
"                                ",
"                                ",
"        .XXXooOO++@#$           ",
"        %&*=-;:>>,<123          ",
"        %4&*=-;:>>,1>56         ",
"        %74&*=-;:>>1*>56        ",
"        89700qqqqwq1e*>X        ",
"        8e974&*=-;:1re*>8       ",
"        8te974&*=-;11111#       ",
"        8tty000qqqqqww>,+       ",
"        uitte974&*=-p:>>+       ",
"        uaitte974&*=-p:>O       ",
"        uaayyyy000qqqqp:O       ",
"        uraaitte974&*=-po       ",
"        urraaitte974&*=-o       ",
"        usryyyyyyy000q*=X       ",
"        ussrraaitte974&*X       ",
"        udssrraaitte974&X       ",
"        uddyyyyyyyyyy074%       ",
"        udddssrraaitte97%       ",
"        uddddssrraaitte9%       ",
"        udddddssrraaitte8       ",
"        uddddddssrraaitt8       ",
"        uuuuuuuuuuuuuu88u       ",
"                                ",
"                                ",
"                                ",
"                                ",
"                                "
};
