/* XPM */
static char *opj_logo[] = {
/* columns rows colors chars-per-pixel */
"90 61 218 2",
"   c #BE3D12",
".  c #BF461D",
"X  c #AD5435",
"o  c #B64925",
"O  c #B54E2B",
"+  c #BC4620",
"@  c #BB4B25",
"#  c #BC4E29",
"$  c #B5502F",
"%  c #BD512C",
"&  c #B45334",
"*  c #B35638",
"=  c #B45B3D",
"-  c #BB5533",
";  c #BE5937",
":  c #BC5C3D",
">  c #9C766A",
",  c #AD5D42",
"<  c #B55F41",
"1  c #BA5E40",
"2  c #A7634D",
"3  c #A76C57",
"4  c #AA6750",
"5  c #AC6B56",
"6  c #AA6E5A",
"7  c #A4705E",
"8  c #B46045",
"9  c #B1644B",
"0  c #BD6244",
"q  c #B96448",
"w  c #BC694D",
"e  c #B36B53",
"r  c #B26E58",
"t  c #BB6C52",
"y  c #B2725D",
"u  c #BD7056",
"i  c #BB745C",
"p  c #A67566",
"a  c #A57B6D",
"s  c #AE7562",
"d  c #AB7867",
"f  c #AA7C6C",
"g  c #A07E73",
"h  c #AA7F71",
"j  c #B37661",
"k  c #B47863",
"l  c #B27D6B",
"z  c #BB7863",
"x  c #BA7E69",
"c  c #C73605",
"v  c #C63A0B",
"b  c #CB3300",
"n  c #CA3807",
"m  c #C93A0A",
"M  c #C43E11",
"N  c #C93E10",
"B  c #C44115",
"V  c #C3441A",
"C  c #C4481E",
"Z  c #CA4113",
"A  c #C94519",
"S  c #CB481C",
"D  c #C24A23",
"F  c #C24F28",
"G  c #CD4D23",
"H  c #C4522D",
"J  c #CB532B",
"K  c #C25632",
"L  c #C35936",
"P  c #C25C3B",
"I  c #C85630",
"U  c #CB5933",
"Y  c #CB5E3A",
"T  c #D05026",
"R  c #CC613D",
"E  c #C26343",
"W  c #C46748",
"Q  c #C1694C",
"!  c #CD6744",
"~  c #CA6C4D",
"^  c #C37155",
"/  c #C4755B",
"(  c #CB7356",
")  c #C8765B",
"_  c #D06D4C",
"`  c #D07253",
"'  c #D47B5E",
"]  c #C37B63",
"[  c #C27E68",
"{  c #C97F68",
"}  c #A68175",
"|  c #A48479",
" . c #AD8172",
".. c #AD8578",
"X. c #AB897D",
"o. c #B1806F",
"O. c #BA816F",
"+. c #B38373",
"@. c #B58778",
"#. c #B3897B",
"$. c #BA8472",
"%. c #BB8C7C",
"&. c #C2816B",
"*. c #CD846C",
"=. c #C38470",
"-. c #C38976",
";. c #C38D7B",
":. c #CC8973",
">. c #CF8F7A",
",. c #CB907D",
"<. c #D1937F",
"1. c #948E8C",
"2. c #9D8C86",
"3. c #9D8F89",
"4. c #96908E",
"5. c #9C918D",
"6. c #949392",
"7. c #9B9492",
"8. c #9D9997",
"9. c #9D9C9C",
"0. c #A38B83",
"q. c #AA8D83",
"w. c #A4918B",
"e. c #AC9087",
"r. c #AB938C",
"t. c #A49590",
"y. c #A29996",
"u. c #A19D9C",
"i. c #AA9790",
"p. c #AC9994",
"a. c #AC9E99",
"s. c #B18D81",
"d. c #B59084",
"f. c #B49389",
"g. c #BA9184",
"h. c #B89589",
"j. c #BA988D",
"k. c #B29B93",
"l. c #BC9C92",
"z. c #ACA19D",
"x. c #B1A19D",
"c. c #BCA39B",
"v. c #A3A3A3",
"b. c #ABA5A3",
"n. c #AEA9A7",
"m. c #ABABAA",
"M. c #B3A5A1",
"N. c #B3A9A6",
"B. c #B3ADAA",
"V. c #B9A6A0",
"C. c #B9AAA5",
"Z. c #BAADA9",
"A. c #B4B0AF",
"S. c #BAB0AD",
"D. c #B4B3B3",
"F. c #BAB5B3",
"G. c #BDB8B6",
"H. c #BBBBBB",
"J. c #C39384",
"K. c #C0978A",
"L. c #C2998B",
"P. c #CA9483",
"I. c #CD9A8A",
"U. c #C19D92",
"Y. c #D69B89",
"T. c #DB9680",
"R. c #C2A095",
"E. c #C4A69C",
"W. c #CCA193",
"Q. c #C8A599",
"!. c #CBA99D",
"~. c #C6AEA6",
"^. c #CCACA2",
"/. c #CBB2AB",
"(. c #C3B8B5",
"). c #C2BDBC",
"_. c #C9B9B3",
"`. c #D3ADA0",
"'. c #D3B4A9",
"]. c #DCB2A4",
"[. c #DEB6A8",
"{. c #D1BFB9",
"}. c #D9BEB5",
"|. c #C5C0BE",
" X c #CDC0BC",
".X c #D2C1BB",
"XX c #DDC3BB",
"oX c #E0C5BC",
"OX c #E0C8BF",
"+X c #C2C2C2",
"@X c #CBC4C2",
"#X c #CDC8C6",
"$X c #CCCBCB",
"%X c #D2C6C2",
"&X c #D1CECD",
"*X c #DDC8C1",
"=X c #DECFCA",
"-X c #D9D1CE",
";X c #D3D3D3",
":X c #D9D5D4",
">X c #DED9D7",
",X c #DBDBDB",
"<X c #E1CAC3",
"1X c #E2CFC8",
"2X c #E1D3CE",
"3X c #E2D5D0",
"4X c #E5D8D3",
"5X c #E4DDDB",
"6X c #E8DBD6",
"7X c #EADEDA",
"8X c #E6E0DE",
"9X c #EBE0DC",
"0X c #E4E4E4",
"qX c #E8E2E0",
"wX c #EBEBEB",
"eX c #F0EAE8",
"rX c #F3F3F3",
"tX c #FEFEFE",
/* pixels */
"tXtXtXtXtXtXtXtXtXtXtXtXtXtXtXtXtXtXtXtXtXtXtXtXtXtXtXtXtXtXtXtXtXtXtXtXtXtXtXtXtXtXtXtXtXtXtXtXtXtXtXtXtXtXtXtXtXtXtXtXtXtXtXtXtXtXtXtXtXtXtXtXtXtXtXtXtXtXtXtXtXtXtXtXtXtXtXtXtXtX",
"tXtXtXtXtXtXtXtXtXtXtXtXtXtXtXtXtXtXtXtXtXtXtXtXtXtXtXtXtXtXtXtXtXtXtXtXtXtXtXtXtXtXtXtXtXtXtXtXtXtXtXtXtXtXtXtXtXtXtXtXtXtXtXtXtXtXtXtXtXtXtXtXtXtXtXtXtXtXtXtXtXtXtXtXtXtXtXtXtXtX",
"tXtXtXtXtXtXtXtXtXtXtXtXtXtXtXtXtXtXtXtXtXtXtXtXtXtXtXtXtXtXtXtXtXtXtXtXtXtXtXtXtXtXtXtXtXtXtXtXtXtXtXtXtXtXtXtXtXtXtXtXtXtXtXtXtXtXtXtXtXtXtXtXtXtXtXtXtXtXtXtXtXtXtXtXtXtXtXtXtXtX",
"tXtXtXtXtXtXtXtXtXtXtXtXtXtXtXtXtXtXtXtXtXtXtXtXtXtXtXtXtXtXtXtXtXtXtXtXtXtXtXtXtXtXtXtXtXtXtXtXtXtXtXtXtXtXtXtXtXtXtXtXtXtXtXtXtXtXtXtXtXtXtXtXtXtXtXtXtXtXtXtXtXtXtXtXtXtXtXtXtXtX",
"tXtXtXtXtXtXtXtXtXtXtXtXtXtXtXtXtXtXtXtXtXtXtXtXtXtXtXtXtXtXtXtXtXtXtXtXtXtXtXtXtXtXtXtXtXtXtXtXtXtXtXtXtXtXtXtXtXtXtXtXtXtXtXtXtXtXtXtXtXtXtXtXtXtXtXtXtXtXtXtXtXtXtXtXtXtXtXtXtXtX",
"tXtXtXtXtXtXtXtXtXtXtXtXtXtXtXtXtXtXtXtXtXtXtXtXtXtXtXtXtXtXtXtXtXtXtXtXtXtXtXtXtXtXtXtXtXtXtXtXtXtXtXtXtXtXtXtXtXtXtXtXtXtXtXtXtXtXtXtXtXtXtXtXtXtXtXtXtXtXtXtXtXtXtXtXtXtXtXtXtXtX",
"tXtXtXtXtXtXtXtXtXtXtXrXrXtXrXrXrXrXrXrXrXtXrXtXtXtXtXtXtXtXtXtXtXtXtXtXtXtXtXtXtXtXtXtXtXtXtXtXtXtXtXtXtXtXtXtXtXtXtXtXtXtXtXtXtXtXtXtXtXtXtXtXtXtXtXtXtXtXtXtXtXtXtXtXtXtXtXtXtXtX",
"tXtXtXtXtXtXtXtXtXrXtXrXrXrXwXwXrXwXrXrXrXrXtXtXtXtXtXtXtXtXtXtXtXtXtXtXtXtXtXtXtXtXtXtXtXtXtXtXtXtXtXtXtXtXtXtXtXtXtXtXtXtXtXtXtXtXtXtXtXtXtXtXtXtXtXtXtXtXtXtXtXtXtXtXtXtXtXtXtXtX",
"tXtXtXtXtXtXtXtXrXrXrXwXwX0X0XqX0X0X0X0XwXwXwXrXrXtXtXtXtXtXtXtXtXtXtXtXtXtXtXtXtXtXtXtXtXtXtXtXtXtXtXtXtXtXtXtXtXtXtXtXtXtXtXtXtXtXtXtXtXtXtXtXtXtXtXtXtXtXtXtXtXtXtXtXtXtXtXtXtXtX",
"tXtXtXtXtXtXtXrXtXrXwXwX2X[.[.].].].].].1XwXrXwXrXrXtXtXtXtXtXtXtXtXtXtXtXtXtXtXtXtXtXtXtXtXtXtXtXtXtXtXtXtXtXtXtXtXtXtXtXtXtXtXtXtXtXtXtXtXtXtXtXtXtXtXtXtXtXtXtXtXtXtXtXtXtXtXtXtX",
"tXtXtXtXtXrXrXrXwX0X0XL.J b b b b b b b J '.0X0XwXwXrXrXrXrXrXrXrXrXrXrXtXrXrXrXtXrXrXrXrXrXrXrXrXrXrXrXrXrXrXrXrXrXtXtXrXtXtXtXtXtXtXtXtXtXtXtXtXtXtXtXtXtXtXtXtXtXtXtXtXtXtXtXtXtX",
"tXtXtXtXtXtXrXrXwX0XXXt m b m B V N b b v >.;X0XwXwXwXwXrXwXwXrXrXrXrXtXrXtXrXrXrXwXrXrXrXrXrXrXrXrXrXrXrXwXrXrXwXrXrXrXtXtXrXtXtXtXtXtXtXtXtXtXtXtXtXtXtXtXtXtXtXtXtXtXtXtXtXtXtXtX",
"tXtXtXtXrXrXrX0X,X'.S b b P l.z.M.k.w n b b g.;X,X,X,X0X0X0X0X0XwXwXwXwXwXwXwXwXwX0X0X0XwX0X0XwXwXwXwX0X0X0X0X0X0XwXwXwXwXrXrXtXtXtXtXtXtXtXtXtXtXtXtXtXtXtXtXtXtXtXtXtXtXtXtXtXtXtX",
"tXtXtXrXrXrXwX0X:XT.m b A ] G.D.D.m.$.m b b $.$X&X.X}.XX>XOX}.oXXX<X0X0XwXwXwX0X2XXXoXXXoXOX5X0XwX0X1XoXXX5X*X}.}.oX<XqXrXrXrXtXtXtXtXtXtXtXtXtXtXtXtXtXtXtXtXtXtXtXtXtXtXtXtXtXtXtX",
"tXtXtXrXrXwX0X,XL.b b D M.H.D.D.D.D.m.L b b W H.Z.# b Y / m b b b Z P.:X:X:X$X:.Z b b b b n :.;X;X;XR b A &.Z b b b b *.wXwXrXrXtXtXtXtXtXtXtXtXtXtXtXtXtXtXtXtXtXtXtXtXtXtXtXtXtXtX",
"tXtXtXtXrXwX0X:X$.b b E B.H.H.D.D.D.D.P b b E H.V.. b U L v v n b b ( #X;X$X~.Y b m N m b b ! {.&X#XI b C R v v n b b ! 0XwXrXrXrXtXtXtXtXtXtXtXtXtXtXtXtXtXtXtXtXtXtXtXtXtXtXtXtXtX",
"tXtXtXrXwX0X:X!.A b Z F.H.H.H.H.H.D.m.L b b e b.+.b b V k i.r.t n b b s.H.x v b L q.b.p.D b b t F.$.n b M l a.M.y b b A :X0XwXrXrXtXtXtXtXtXtXtXtXtXtXtXtXtXtXtXtXtXtXtXtXtXtXtXtXtX",
"tXtXtXrXwX0X:XL.m b D H.).H.+XH.H.H.D.H b b 6 v.j b b - a.A.m.@.m b b h D.< b b w z.b.b.P b b q B.z b b @ B.D.m...v b G :X,XwXwXrXtXtXtXtXtXtXtXtXtXtXtXtXtXtXtXtXtXtXtXtXtXtXtXtXtX",
"tXtXtXwX0X,X&X/ b b , D.H.+X+X+X+XH.f.B b b 5.8.M b M w.v.v.v.r.D b b h l v b b M     V v b b q u.X b n @.v.m.v.j b b Q &X,X0XwXrXtXtXtXtXtXtXtXtXtXtXtXtXtXtXtXtXtXtXtXtXtXtXtXtXtX",
"tXtXtXwX0X,X$X^ b b , H.H.+X+XH.H.H.s.N b n 7.7.v b B 8.v.v.v.w.M b b g r b b b n n n b b b b e y.O b n X.m.v.n.e b b u &X,X0XrXrXtXtXtXtXtXtXtXtXtXtXtXtXtXtXtXtXtXtXtXtXtXtXtXtXtX",
"tXtXtXrX0X,X$X/ b b + F.H.H.H.+XH.d.b b M | 8.> c b @ 9.v.9.u., b b - 3.& b b 7 1.1.4.4.4.6.7.9.w.m b + t.v.m.p.D b b K.;X,X0XwXtXtXtXtXtXtXtXtXtXtXtXtXtXtXtXtXtXtXtXtXtXtXtXtXtXtX",
"tXtXtXwX0X,X$X-.b b b i D.H.G.H.J.N b b = 9.9.5 c b B 7.9.v.y.b b m f 4.O b b 3 6.6.6.g 9 4 h u.h b b - b.m.m.s.b b N ~.;X,X0XwXrXrXtXtXtXtXtXtXtXtXtXtXtXtXtXtXtXtXtXtXtXtXtXtXtXtX",
"tXtXtXwX0X,X;XE.G b b I z ] ] ] W n b H l 9.8.9 b b m e 6 r e b b # 0.y.< b b O 6 p 6 < # ; q.v.t b b 0 n.A.A.+.b b H _.;X,XwXwXtXtXtXtXtXtXtXtXtXtXtXtXtXtXtXtXtXtXtXtXtXtXtXtXtXtX",
"tXtXtXwXwX,X;X#Xf.b b b b b b b b b - a.v.v.w.@ b b v b b b b b @ b.m.v.w.M b b b b b b v ..m.n.A b n g.H.H.H.4 b b [ &X,X0XwXrXrXtXtXtXtXtXtXtXtXtXtXtXtXtXtXtXtXtXtXtXtXtXtXtXtXtX",
"tXtXtXwXwX0X:X$XZ.Q H v n b m B H E x n.m.m.q.B b v < . v N + E z m.m.m.b.e - M m v M - t k.D.m.; # - V.H.+XH.s # # K.:X,X0XwXrXrXtXtXtXtXtXtXtXtXtXtXtXtXtXtXtXtXtXtXtXtXtXtXtXtXtX",
"tXtXtXrXwXwX,X,X$X+XG.Z.Z.B.C.S.F.H.H.H.D.D.j b b q v.b.a.n.B.H.H.+X+X+XH.H.D.Z.C.Z.Z.F.H.H.+X+XH.).H.$X&X&X;X$X#X#X:X,X0XwXrXrXtXtXtXtXtXtXtXtXtXtXtXtXtXtXtXtXtXtXtXtXtXtXtXtXtXtX",
"tXtXtXrXrXwX0X,X;X#X+X+X+XH.H.+X+X+XH.H.H.D.e b n i n.m.D.H.H.+X#X$X$X+X+X+X+XH.H.H.H.+X+X+X$X&X&X&X$X;X;X;X:X;X:X,X,X0XwXwXrXtXtXtXtXtXtXtXtXtXtXtXtXtXtXtXtXtXtXtXtXtXtXtXtXtXtXtX",
"tXtXtXtXrXrXwXwX,X,X;X;X$X$X$X;X;X&X;X$X#X+XF b v s.H.H.+X$X&X;X;X,X,X,X;X:X;X;X;X;X;X;X:X,X,X,X0X,X0X,X0X0X0X0X0X0X0XwXwXrXtXrXtXtXtXtXtXtXtXtXtXtXtXtXtXtXtXtXtXtXtXtXtXtXtXtXtXtX",
"tXtXtXrXtXrXwXwX0X,X:X;X;X;X;X;X:X;X;X;X$X+XC b B k.+X+X$X$X;X,X,X0X0X0X0X0X;X,X,X,X,X,X,X,X,X0X0X0X0X0X0XwX0X0X0XwXwXrXrXrXrXtXtXtXtXtXtXtXtXtXtXtXtXtXtXtXtXtXtXtXtXtXtXtXtXtXtXtX",
"tXtXtXtXtXrXrXrXrXwXwXwX0X0X0X0X0X0X0X,X,X:X^.^.!.$X$X;X,X,X0XwXwXwXwXwXwXwXwX0X0X0X0XwXwXwXwXwXwXrXrXwXrXrXrXrXrXrXrXrXrXtXtXtXtXtXtXtXtXtXtXtXtXtXtXtXtXtXtXtXtXtXtXtXtXtXtXtXtXtX",
"tXtXtXtXtXtXrXrXrXrXwXwXwXwX0XwXwXwX0X0X,X:X;X$X&X&X;X,X,X0XwXwXwXrXrXrXrXrXwXwXwXwXwXwXwXrXrXrXwXrXrXrXrXrXrXrXrXrXrXtXrXtXtXrXtXtXtXtXtXtXtXtXtXtXtXtXtXtXtXtXtXtXtXtXtXtXtXtXtXtX",
"tXtXtXtXtXtXtXtXtXrXrXrXrXrXrXrXrXrXwXwXwXwX0X,X0X0X0XwXwXrXrXrXrXrXrXrXrXrXrXrXrXrXrXwXrXrXrXrXrXtXrXrXrXtXrXrXrXrXrXrXrXrXrXtXtXtXrXrXtXtXtXtXrXrXtXrXrXtXrXtXrXtXtXtXtXtXtXtXtXtX",
"tXtXtXtXtXtXtXtXrXtXtXrXtXrXrXrXrXrXrXwXwXwX0XwX0XwXwXwXrXrXrXtXtXrXrXrXrXrXrXrXrXwXrXwXrXwXwXrXrXrXrXrXrXrXrXrXrXrXrXrXrXrXrXrXrXrXtXrXrXtXtXrXrXrXrXrXrXrXrXrXrXtXtXtXtXtXtXtXtXtX",
"tXtXtXtXtXtXtXtXtXtXtXtXtXtXtXtXtXtXtXtXrXrXrXwXrXrXrXrXrXrXtXrXtXrXrXrXrXrXwXwXwXwXwX0X0XwX0XwXwXwXwXwXwXwXrXwXwXwX0X0X0X0XwX0XwXwXrXrXrXwXrXwXwXwX0XwX0XwXwXwXrXrXrXrXtXtXtXtXtXtX",
"tXtXtXtXtXtXtXtXtXtXtXtXtXtXtXtXtXtXtXrXrXrXrXrXrXrXrXtXtXrXrXtXrXrXeX7X7X9XwXwXwX5X3X3X3X2X2X2X5X0XwXwXwXwXwX8X3X3X2X2X2X2X2X3X6X6X7XwXwXwXwXwXwX7X1XXXOXOX1X8XwXwXrXrXrXtXtXtXtXtX",
"tXtXtXtXtXtXtXtXtXtXtXtXtXtXtXtXtXtXtXtXtXtXtXtXtXtXrXtXtXtXrXrXrXwXT.T T :.,X,X-X` G G G G G G U _ J.-X,X,X,X[ G G G G G G G G G G _ >XwX0X,X&XI.R N b b b m ! `.5XwXrXrXtXtXtXtXtX",
"tXtXtXtXtXtXtXtXtXtXtXtXtXtXtXtXtXtXtXtXtXtXtXrXtXtXtXrXtXrXrXrXwX0X' b b ] >X,X%XJ b b b b b b b b Q {.:X;X:Xq b b b b b b b b b b Y >X0X,X-X'.^ n b b b b b m *.1XwXwXrXtXtXtXtXtX",
"tXtXtXtXtXtXtXtXtXtXtXtXtXtXtXtXtXtXtXtXtXtXtXtXtXtXtXtXtXrXrX0X0X%XL b b L.@X+X-.b b M L L L D b b b M V.+X(.N b b D H H H H H U U W.;X&X^.H b b n W -.-.W n b b J &XwXrXtXtXtXtXtX",
"tXtXtXtXtXtXtXtXtXtXtXtXtXtXtXtXtXtXtXtXtXtXtXtXtXtXtXtXtXrXwXwX0X XF b b U.+X+X[ b b D z z j P v b b N U.H.S.m b m E Q t ^ ) / ) ) /.$X$X;.m b n A %.H.H.J.N b b N .XwXwXtXtXtXtXtX",
"tXtXtXtXtXtXtXtXtXtXtXtXtXtXtXtXtXtXtXtXtXtXtXtXtXtXtXtXrXwXwX,X:X!.m b L N.D.m.* b b y v.v.v.v.p.n b M f.m.w b b D u.v.m.m.D.G.H.H.+X).g.b b B j.F.D.D.D.D.l.; F I /.0XwXrXtXtXtXtX",
"tXtXtXtXtXtXtXtXtXtXtXtXtXtXtXtXtXtXtXtXtXtXtXtXtXtXtXtXrXrXwX,X:XU.n b E B.A.n.$ b b s v.9.v.v.r.n n M r.b.1 b b D u.v.m.m.D.D.H.H.).H.k b b # M.G.D.D.D.D.Z.t w u _.0XwXtXtXtXtXtX",
"tXtXtXtXtXtXtXtXtXtXtXtXtXtXtXtXtXtXtXtXtXtXtXtXtXtXrXrXwXwX,X;X$XJ b m h b.v.i.m b M a 5.5.2.p M b c < 8.2.+ b b M o o o o # % j G.H.g.m b A M.D.D.D.B.M.M.M.M.Z.(.:X0XwXrXtXtXtXtX",
"tXtXtXtXtXtXtXtXtXtXtXtXtXtXtXtXtXtXtXtXtXtXtXrXrXrXrXrXwX,X,X&X(.n b M 0.v.v.s b b b b b n b b c b M u.v.g M b b b b b b b b b i G.D.0 b b 8 D.D.H.G.P n b b n b U :X,XwXtXtXtXtXtX",
"tXtXtXtXtXtXtXtXtXtXtXtXtXtXtXtXtXtXtXtXtXtXtXrXrXrXrXwX0X,X;X$XV.n b M w.v.9.< b b b b b b b b c H r 9.v.a n b   * < < w w Q Q g.D.B.: b b r D.D.D.m.C b b b b b ) ;X0XwXrXtXtXtXtX",
"tXtXtXtXtXtXtXtXtXtXtXtXtXtXtXtXtXtXtXtXtXrXrXrXrX6XP.=.K.;X#X+Xx n b D v.u.7.. b b M D . D & 2 q.b.b.v.v.< b b X 6.9.9.b.m.D.D.D.D.n.# b b f D.D.D.b.= 1 * N b n !.;X,XwXtXtXtXtXtX",
"tXtXtXtXtXtXtXtXtXtXtXtXtXtXtXtXtXtXtXtXrXtXrXrXwX<X~ P x $X+XH.z b b - v.v.3.M b b < r r r k 0.a.m.m.m.v.# b b , 6.9.v.m.D.D.D.H.D.z.O b b s D.D.D.N.f l 9 v b M ~.;X,XwXrXtXtXtXtX",
"tXtXtXtXtXtXtXtXtXtXtXtXtXtXtXtXtXtXtXtXrXtXrXwX0XY.n b e H.H.V.F b b p b.v.h v b v v.m.A.D.H.+X+X+XH.D.p.b b m p 9.v.m.D.D.H.H.H.D.N.- b b - m.A.D.A.m.a.B b b - (.:X0XwXrXtXtXtXtX",
"tXtXtXtXtXtXtXtXtXtXtXtXtXtXtXtXtXtXtXtXtXrXwXwX0XY.n b ; Z.C.$.A b v 0.m.m.l n b M m.D.D.H.+X#X+X+XH.H.r.b b m < d l l l $.;.J.V.H.B.w b b C @.s.a.k.#.j n b b : ).:X,XwXtXtXtXtXtX",
"tXtXtXtXtXtXtXtXtXtXtXtXtXtXtXtXtXtXtXtXrXrXwXwX0X'.N b b A B n b n z m.D.B.0 b b 9 H.H.+X$X;X:X;X$X$X+Xl b b b b b b b b b b b s.H.H.B.H b b b n Z Z b b V n b ] $X:X0XwXrXtXtXtXtX",
"tXtXtXtXtXtXtXtXtXtXtXtXtXtXtXtXtXtXtXtXtXrXwX0X,X.XR b b b b b A P d.D.D.C.H b b j H.$X$X;X:X,X,X;X;X+X/ b b b b b b b b b b b a.H.H.D.u G b b b b b B H : v m ;.$X,XwXwXtXtXtXtXtX",
"tXtXtXtXtXtXtXtXtXtXtXtXtXtXtXtXtXtXtXtXtXrXwXwX,X:X Xg.j 5 y s.C.H.H.+X+X|.E.Q.Q. X;X;X,X0XwXwX0X0X,X;X/.U.j.h.g.f.h.j.U.U.U.!.$X$X+X+XH.Z.g.y 4 6 l x.D.A.l.~.#X,X0XwXrXtXtXtXtXtX",
"tXtXtXtXtXtXtXtXtXtXtXtXtXtXtXtXtXtXtXtXrXrXrXwX0X:X$XG.k.e.f.B.H.H.+X$X$X$X#X$X$X;X;X,X0XwXwXwXwX0X0X;X$X+XH.D.D.D.F.H.+X+X#X&X$X;X$X$X+X+XA.r.X.e.a.H.H.H.+X+X;X,X0XwXrXtXtXtXtXtX",
"tXtXtXtXtXtXtXtXtXtXtXtXtXtXtXtXtXtXtXtXtXtXrXrXwX,X,X$X&X$X$X$X$X;X;X,X,X,X,X,X,X0XwXwXwXrXtXrXrXwXwX0X,X;X$X$X+X$X$X$X;X;X:X,X,X,X,X,X;X$X&X#X#X$X$X$X$X$X;X,X,X0XwXrXrXtXtXtXtXtX",
"tXtXtXtXtXtXtXtXtXtXtXtXtXtXtXtXtXtXtXtXtXrXrXwXwX0X,X:X;X;X$X;X;X:X,X,X0X0X,X0X0X0XwXwXwXrXrXtXrXrXwXwX0X;X;X$X&X$X$X&X:X,X,X,X,X0X,X,X:X;X;X$X$X$X$X$X;X:X,X,X0XwXwXrXrXtXtXtXtXtX",
"tXtXtXtXtXtXtXtXtXtXtXtXtXtXtXtXtXtXtXtXtXrXtXrXwXwXwX0X0X0X0X0X0XwXwXwXwXwXwXwXwXrXwXrXtXtXrXtXtXrXrXrXwX0X0X0X0X,X,X0X0X0X0XwXwXwXwXwXwX0X0X0X,X,X,X,X0X0XwXwXwXrXtXrXtXtXtXtXtXtX",
"tXtXtXtXtXtXtXtXtXtXtXtXtXtXtXtXtXtXtXtXtXtXrXrXrXrXwXwX0X0X0X0X0XwXwXwXrXwXrXrXrXrXrXtXrXtXtXtXtXrXrXrXwXwXwX0X0X0X0X0X0X0XwXwXwXwXwXwXwXwXwX0X0X0X0XwXwXwXwXwXrXrXrXtXtXtXtXtXtXtX",
"tXtXtXtXtXtXtXtXtXtXtXtXtXtXtXtXtXtXtXtXtXtXtXtXrXtXrXrXrXrXrXrXrXrXrXrXtXtXrXtXtXrXtXtXtXtXtXtXtXrXtXrXtXrXrXrXrXwXwXrXrXrXrXrXrXrXtXrXrXrXrXrXrXrXwXrXrXrXrXtXtXtXtXtXtXtXtXtXtXtX",
"tXtXtXtXtXtXtXtXtXtXtXtXtXtXtXtXtXtXtXtXtXtXtXtXtXrXtXrXrXrXrXrXrXtXtXrXtXrXtXrXrXtXtXtXtXtXtXtXtXtXtXtXrXrXrXrXrXrXrXrXrXrXrXtXtXrXtXrXrXtXrXrXrXrXrXrXrXrXtXrXrXtXtXtXtXtXtXtXtXtX",
"tXtXtXtXtXtXtXtXtXtXtXtXtXtXtXtXtXtXtXtXtXtXtXtXtXtXtXtXtXtXtXtXtXtXtXtXtXtXtXtXtXtXtXtXtXtXtXtXtXtXtXtXtXtXtXtXtXtXtXtXtXtXtXtXtXtXtXtXtXtXtXtXtXtXtXtXtXtXtXtXtXtXtXtXtXtXtXtXtXtX",
"tXtXtXtXtXtXtXtXtXtXtXtXtXtXtXtXtXtXtXtXtXtXtXtXtXtXtXtXtXtXtXtXtXtXtXtXtXtXtXtXtXtXtXtXtXtXtXtXtXtXtXtXtXtXtXtXtXtXtXtXtXtXtXtXtXtXtXtXtXtXtXtXtXtXtXtXtXtXtXtXtXtXtXtXtXtXtXtXtXtX",
"tXtXtXtXtXtXtXtXtXtXtXtXtXtXtXtXtXtXtXtXtXtXtXtXtXtXtXtXtXtXtXtXtXtXtXtXtXtXtXtXtXtXtXtXtXtXtXtXtXtXtXtXtXtXtXtXtXtXtXtXtXtXtXtXtXtXtXtXtXtXtXtXtXtXtXtXtXtXtXtXtXtXtXtXtXtXtXtXtXtX"
};
